<?xml version="1.0" encoding="UTF-8" standalone="no"?>
<svg
   xmlns:dc="http://purl.org/dc/elements/1.1/"
   xmlns:cc="http://creativecommons.org/ns#"
   xmlns:rdf="http://www.w3.org/1999/02/22-rdf-syntax-ns#"
   xmlns:svg="http://www.w3.org/2000/svg"
   xmlns="http://www.w3.org/2000/svg"
   xmlns:sodipodi="http://sodipodi.sourceforge.net/DTD/sodipodi-0.dtd"
   xmlns:inkscape="http://www.inkscape.org/namespaces/inkscape"
   version="1.1"
   id="Layer_1"
   x="0px"
   y="0px"
   viewBox="0 0 511.999 511.999"
   style="enable-background:new 0 0 511.999 511.999;"
   xml:space="preserve"
   sodipodi:docname="detour.svg"
   inkscape:version="1.0.1 (0767f8302a, 2020-10-17)"><metadata
   id="metadata965"><rdf:RDF><cc:Work
       rdf:about=""><dc:format>image/svg+xml</dc:format><dc:type
         rdf:resource="http://purl.org/dc/dcmitype/StillImage" /></cc:Work></rdf:RDF></metadata><defs
   id="defs963" /><sodipodi:namedview
   pagecolor="#ffffff"
   bordercolor="#666666"
   borderopacity="1"
   objecttolerance="10"
   gridtolerance="10"
   guidetolerance="10"
   inkscape:pageopacity="0"
   inkscape:pageshadow="2"
   inkscape:window-width="3818"
   inkscape:window-height="2098"
   id="namedview961"
   showgrid="false"
   inkscape:zoom="3.5234444"
   inkscape:cx="255.9995"
   inkscape:cy="255.9995"
   inkscape:window-x="5"
   inkscape:window-y="5"
   inkscape:window-maximized="0"
   inkscape:current-layer="Layer_1" />
<g
   id="g922"
   style="display:inline;stroke-width:1.00157;stroke-miterlimit:4;stroke-dasharray:none;fill:#ffd42a">
	<g
   id="g920"
   style="stroke-width:1.00157;stroke-miterlimit:4;stroke-dasharray:none;fill:#ffd42a">
		<path
   d="m 510.336,279.765 c -1.088,-2.581 -2.645,-4.928 -4.608,-6.869 0,0 -0.021,-0.021 -0.021,-0.043 l -64.427,-64 c -8.341,-8.299 -21.845,-8.256 -30.165,0.107 -8.299,8.363 -8.256,21.867 0.085,30.165 l 27.712,27.541 h -56.661 c -11.392,-69.312 -76.629,-128 -147.584,-128 -70.955,0 -136.192,58.688 -147.584,128 H 21.333 C 9.536,266.667 0,276.203 0,288 c 0,11.776 9.536,21.333 21.333,21.333 h 85.333 c 11.776,0 21.333,-9.557 21.333,-21.333 0,-54.848 51.819,-106.667 106.667,-106.667 54.827,0 106.667,51.819 106.667,106.667 0,11.776 9.536,21.333 21.333,21.333 h 76.245 l -27.712,27.52 c -8.341,8.299 -8.384,21.824 -0.085,30.165 4.181,4.203 9.643,6.315 15.125,6.315 5.44,0 10.88,-2.069 15.04,-6.208 l 64.427,-64 v -0.021 c 1.984,-1.963 3.541,-4.309 4.629,-6.891 1.088,-2.581 1.664,-5.376 1.664,-8.213 10e-4,-2.859 -0.575,-5.653 -1.663,-8.235 z"
   id="path918"
   style="stroke-width:1.00157;stroke-miterlimit:4;stroke-dasharray:none;fill:#ffd42a" />
	</g>
</g>
<g
   id="g928"
   style="display:inline;fill:#ffd42a;stroke-width:1.00157;stroke-miterlimit:4;stroke-dasharray:none">
	<g
   id="g926"
   style="fill:#ffd42a;stroke-width:1.00157;stroke-miterlimit:4;stroke-dasharray:none">
		<path
   d="m 234.662,202.658 c -47.061,0 -85.333,38.272 -85.333,85.333 0,47.061 38.272,85.333 85.333,85.333 47.061,0 85.333,-38.272 85.333,-85.333 0,-47.061 -38.271,-85.333 -85.333,-85.333 z"
   id="path924"
   style="fill:#ffd42a;stroke-width:1.00157;stroke-miterlimit:4;stroke-dasharray:none" />
	</g>
</g>
<g
   id="g930"
   style="display:inline;stroke-width:1.0015748;stroke-miterlimit:4;stroke-dasharray:none;fill:#ffd42a">
</g>
<g
   id="g932"
   style="display:inline;stroke-width:1.0015748;stroke-miterlimit:4;stroke-dasharray:none;fill:#ffd42a">
</g>
<g
   id="g934"
   style="display:inline;stroke-width:1.0015748;stroke-miterlimit:4;stroke-dasharray:none;fill:#ffd42a">
</g>
<g
   id="g936"
   style="display:inline;stroke-width:1.0015748;stroke-miterlimit:4;stroke-dasharray:none;fill:#ffd42a">
</g>
<g
   id="g938"
   style="display:inline;stroke-width:1.0015748;stroke-miterlimit:4;stroke-dasharray:none;fill:#ffd42a">
</g>
<g
   id="g940"
   style="display:inline;stroke-width:1.0015748;stroke-miterlimit:4;stroke-dasharray:none;fill:#ffd42a">
</g>
<g
   id="g942"
   style="display:inline;stroke-width:1.0015748;stroke-miterlimit:4;stroke-dasharray:none;fill:#ffd42a">
</g>
<g
   id="g944"
   style="display:inline;stroke-width:1.0015748;stroke-miterlimit:4;stroke-dasharray:none;fill:#ffd42a">
</g>
<g
   id="g946"
   style="display:inline;stroke-width:1.0015748;stroke-miterlimit:4;stroke-dasharray:none;fill:#ffd42a">
</g>
<g
   id="g948"
   style="display:inline;stroke-width:1.0015748;stroke-miterlimit:4;stroke-dasharray:none;fill:#ffd42a">
</g>
<g
   id="g950"
   style="display:inline;stroke-width:1.0015748;stroke-miterlimit:4;stroke-dasharray:none;fill:#ffd42a">
</g>
<g
   id="g952"
   style="display:inline;stroke-width:1.0015748;stroke-miterlimit:4;stroke-dasharray:none;fill:#ffd42a">
</g>
<g
   id="g954"
   style="display:inline;stroke-width:1.0015748;stroke-miterlimit:4;stroke-dasharray:none;fill:#ffd42a">
</g>
<g
   id="g956"
   style="display:inline;stroke-width:1.0015748;stroke-miterlimit:4;stroke-dasharray:none;fill:#ffd42a">
</g>
<g
   id="g958"
   style="display:inline;stroke-width:1.0015748;stroke-miterlimit:4;stroke-dasharray:none;fill:#ffd42a">
</g>
</svg>
