<?xml version="1.0" encoding="UTF-8"?>
<svg xmlns="http://www.w3.org/2000/svg" xmlns:xlink="http://www.w3.org/1999/xlink" width="345.52pt" height="260.07pt" viewBox="0 0 345.52 260.07" version="1.1">
<defs>
<clipPath id="clip1">
  <path d="M 0 0 L 345.519531 0 L 345.519531 260.070313 L 0 260.070313 Z M 0 0 "/>
</clipPath>
</defs>
<g id="surface1">
<path style=" stroke:none;fill-rule:nonzero;fill:rgb(97.235107%,62.347412%,21.932983%);fill-opacity:1;" d="M 37.460938 1.855469 L 308.066406 1.855469 C 327.667969 1.855469 343.660156 17.441406 343.660156 36.535156 L 343.660156 223.542969 C 343.660156 242.636719 327.667969 258.214844 308.066406 258.214844 L 37.460938 258.214844 C 17.847656 258.214844 1.855469 242.636719 1.855469 223.542969 L 1.855469 36.535156 C 1.855469 17.441406 17.847656 1.855469 37.460938 1.855469 "/>
<g clip-path="url(#clip1)" clip-rule="nonzero">
<path style=" stroke:none;fill-rule:nonzero;fill:rgb(13.699341%,12.199402%,12.5%);fill-opacity:1;" d="M 3.707031 223.542969 L 3.707031 36.535156 C 3.707031 18.4375 18.851563 3.710938 37.460938 3.710938 L 308.066406 3.710938 C 317.058594 3.710938 325.53125 7.140625 331.921875 13.363281 C 338.296875 19.574219 341.808594 27.804688 341.808594 36.535156 L 341.808594 223.542969 C 341.808594 241.636719 326.671875 256.359375 308.066406 256.359375 L 37.460938 256.359375 C 18.851563 256.359375 3.707031 241.636719 3.707031 223.542969 Z M 37.460938 0.00390625 C 16.804688 0.00390625 0 16.390625 0 36.535156 L 0 223.542969 C 0 243.683594 16.804688 260.070313 37.460938 260.070313 L 308.066406 260.070313 C 328.714844 260.070313 345.515625 243.683594 345.515625 223.542969 L 345.515625 36.535156 C 345.515625 26.796875 341.605469 17.625 334.507813 10.707031 C 327.421875 3.804688 318.03125 0.00390625 308.066406 0.00390625 L 37.460938 0.00390625 "/>
</g>
<path style=" stroke:none;fill-rule:evenodd;fill:rgb(13.699341%,12.199402%,12.5%);fill-opacity:1;" d="M 307.984375 8.980469 C 323.453125 9.363281 336.140625 20.914063 336.546875 36.628906 C 336.605469 39.070313 336.546875 41.519531 336.546875 43.960938 C 336.535156 59.132813 336.535156 159.757813 336.523438 174.925781 C 336.523438 205.5 336.519531 193.351563 336.503906 223.925781 C 336.503906 239.59375 322.464844 251.050781 307.492188 251.050781 C 300.488281 251.050781 293.476563 251.050781 286.464844 251.050781 C 256.269531 251.058594 225.121094 251.066406 194.914063 251.066406 C 124.011719 251.074219 139.5 251.074219 68.582031 251.078125 C 48.777344 251.085938 18.777344 256.058594 10.484375 232.28125 C 7.472656 223.617188 8.980469 212.476563 8.980469 203.496094 C 8.992188 185.6875 8.992188 210.59375 8.992188 192.789063 C 9.007813 175.09375 9.007813 71.941406 9.019531 54.242188 C 9.019531 42.558594 7.269531 30.1875 14.597656 20.152344 C 27.261719 4.460938 52.734375 9.015625 70.625 9.015625 C 142.179688 9.011719 127.328125 9.003906 198.890625 8.984375 C 234.933594 8.984375 271.933594 8.980469 307.984375 8.980469 "/>
<path style=" stroke:none;fill-rule:evenodd;fill:rgb(97.303772%,63.264465%,23.834229%);fill-opacity:1;" d="M 37.460938 19.667969 L 308.066406 19.667969 C 317.875 19.667969 325.859375 27.664063 325.859375 37.464844 L 325.859375 222.613281 C 325.859375 232.414063 317.875 240.410156 308.066406 240.410156 L 37.460938 240.410156 C 27.652344 240.410156 19.65625 232.414063 19.65625 222.613281 L 19.65625 37.464844 C 19.65625 27.664063 27.652344 19.667969 37.460938 19.667969 "/>
<path style=" stroke:none;fill-rule:evenodd;fill:rgb(13.699341%,12.199402%,12.5%);fill-opacity:1;" d="M 140.296875 108.363281 L 140.296875 99.15625 L 113.914063 99.15625 L 113.914063 83.589844 L 130.503906 83.589844 L 130.503906 74.394531 L 113.914063 74.394531 L 113.914063 60.40625 L 138.484375 60.40625 L 138.484375 51.414063 L 104.929688 51.414063 L 104.929688 108.363281 Z M 188.4375 108.363281 L 188.4375 51.414063 L 179.441406 51.414063 L 179.441406 87.78125 L 158.679688 51.414063 L 149.683594 51.414063 L 149.683594 108.363281 L 158.679688 108.363281 L 158.679688 69.800781 L 180.441406 108.363281 Z M 240.582031 79.78125 C 240.582031 68.597656 237.191406 59.605469 231.179688 54.410156 C 228.191406 52.015625 225.992188 51.414063 220.195313 51.414063 L 201.824219 51.414063 L 201.824219 108.363281 L 219.195313 108.363281 C 220.601563 108.363281 221.789063 108.363281 222.398438 108.363281 C 225.398438 108.160156 228.386719 107.15625 230.589844 105.15625 C 236.972656 100.164063 240.582031 91.179688 240.582031 79.78125 Z M 231.394531 79.78125 C 231.394531 87.382813 229.597656 93.574219 226.195313 96.976563 C 224.601563 98.570313 222.789063 99.15625 219.804688 99.15625 L 210.808594 99.15625 L 210.808594 60.40625 L 221.007813 60.40625 C 223.398438 60.40625 225.398438 61.402344 226.789063 62.804688 C 229.597656 65.800781 231.394531 72.199219 231.394531 79.78125 "/>
<path style=" stroke:none;fill-rule:evenodd;fill:rgb(13.699341%,12.199402%,12.5%);fill-opacity:1;" d="M 73.085938 179.480469 C 73.085938 168.292969 69.679688 159.308594 63.6875 154.113281 C 60.683594 151.710938 58.496094 151.109375 52.703125 151.109375 L 34.316406 151.109375 L 34.316406 208.050781 L 51.691406 208.050781 C 53.09375 208.050781 54.296875 208.050781 54.890625 208.050781 C 57.894531 207.847656 60.886719 206.851563 63.089844 204.855469 C 69.484375 199.867188 73.085938 190.867188 73.085938 179.480469 Z M 63.886719 179.480469 C 63.886719 187.070313 62.089844 193.261719 58.699219 196.660156 C 57.09375 198.265625 55.296875 198.859375 52.296875 198.859375 L 43.300781 198.859375 L 43.300781 160.105469 L 53.5 160.105469 C 55.890625 160.105469 57.894531 161.101563 59.292969 162.5 C 62.089844 165.503906 63.886719 171.886719 63.886719 179.480469 Z M 120.824219 208.050781 L 120.824219 198.859375 L 94.457031 198.859375 L 94.457031 183.273438 L 111.035156 183.273438 L 111.035156 174.089844 L 94.457031 174.089844 L 94.457031 160.105469 L 119.027344 160.105469 L 119.027344 151.109375 L 85.472656 151.109375 L 85.472656 208.050781 Z M 160.375 159.109375 L 160.375 151.109375 L 125.230469 151.109375 L 125.230469 159.109375 L 138.210938 159.109375 L 138.210938 208.050781 L 147.195313 208.050781 L 147.195313 159.109375 Z M 207.929688 179.675781 C 207.929688 172.492188 206.535156 165.300781 204.132813 160.296875 C 200.535156 153.308594 195.539063 150.117188 188.351563 150.117188 C 181.761719 150.117188 177.15625 152.117188 173.761719 156.5 C 169.972656 161.898438 167.574219 170.289063 167.574219 179.675781 C 167.574219 186.472656 169.171875 194.0625 171.574219 198.859375 C 174.964844 205.847656 179.949219 209.085938 187.945313 209.085938 C 193.945313 209.085938 198.550781 207.054688 201.738281 202.660156 C 205.726563 197.667969 207.929688 188.671875 207.929688 179.675781 Z M 198.941406 179.675781 C 198.941406 184.074219 197.941406 189.671875 196.738281 192.65625 C 194.742188 197.667969 192.148438 199.867188 187.945313 199.867188 C 184.351563 199.867188 181.964844 198.457031 180.167969 195.453125 C 177.964844 191.871094 176.761719 185.675781 176.761719 179.675781 C 176.761719 174.890625 177.5625 169.695313 178.953125 166.296875 C 180.964844 161.300781 183.757813 159.109375 188.148438 159.308594 C 191.539063 159.503906 193.742188 160.699219 195.539063 163.707031 C 197.738281 167.503906 198.941406 173.289063 198.941406 179.675781 Z M 259.066406 187.675781 L 259.066406 151.109375 L 250.085938 151.109375 L 250.085938 187.675781 C 250.085938 195.0625 245.886719 199.867188 239.6875 199.867188 C 233.496094 199.867188 229.308594 195.0625 229.308594 187.675781 L 229.308594 151.109375 L 220.3125 151.109375 L 220.3125 187.675781 C 220.3125 192.074219 221.316406 196.0625 222.90625 199.453125 C 225.902344 205.054688 232.699219 209.085938 239.6875 209.085938 C 246.695313 209.085938 253.480469 205.054688 256.472656 199.453125 C 258.066406 196.0625 259.066406 192.074219 259.066406 187.675781 Z M 311.207031 208.050781 L 301.230469 181.476563 C 306.429688 179.082031 310.019531 173.085938 310.019531 167.097656 C 310.019531 161.300781 306.429688 155.308594 301.414063 152.90625 C 298.625 151.511719 295.632813 151.109375 291.246094 151.109375 L 272.453125 151.109375 L 272.453125 208.050781 L 281.449219 208.050781 L 281.449219 183.273438 L 292.242188 183.273438 L 301.414063 208.050781 Z M 301.023438 167.097656 C 301.023438 169.480469 299.636719 171.886719 297.429688 173.085938 C 296.027344 173.886719 295.03125 174.089844 292.242188 174.089844 L 281.449219 174.089844 L 281.449219 160.105469 L 292.242188 160.105469 C 295.230469 160.105469 296.027344 160.296875 297.429688 161.101563 C 299.636719 162.296875 301.023438 164.695313 301.023438 167.097656 "/>
</g>
</svg>
